<svg xmlns="http://www.w3.org/2000/svg" viewBox="0 0 1920 1080">
<defs><linearGradient id="g" x1="0" y1="0" x2="1" y2="1"><stop stop-color="#04070b"/><stop offset=".52" stop-color="#0a1826"/><stop offset="1" stop-color="#07101a"/></linearGradient><radialGradient id="r"><stop stop-color="#2f9cff" stop-opacity=".28"/><stop offset="1" stop-color="#2f9cff" stop-opacity="0"/></radialGradient></defs>
<rect width="1920" height="1080" fill="url(#g)"/><circle cx="1480" cy="260" r="720" fill="url(#r)"/>
<g fill="#0d2030" opacity=".82"><path d="M0 790h130v-180h90v180h80V520h125v270h75V650h100v140h95V560h150v230h85V430h120v360h85V590h150v200h90V500h130v290h115v290H0z"/></g>
<g stroke="#4aa8ff" stroke-opacity=".16" fill="none"><path d="M0 900L960 640 1920 900"/><path d="M0 980L960 640 1920 980"/><path d="M250 1080L960 640 1670 1080"/><path d="M520 1080L960 640 1400 1080"/></g>
</svg>